<svg aria-roledescription="flowchart-v2" role="graphics-document document" viewBox="0 0 1007.625 1425.65625" height="1425.65625" class="flowchart" xmlns="http://www.w3.org/2000/svg" width="1007.625" id="graphDiv"><style>#graphDiv{font-family:"trebuchet ms",verdana,arial,sans-serif;font-size:16px;fill:#ccc;}#graphDiv .error-icon{fill:#a44141;}#graphDiv .error-text{fill:#ddd;stroke:#ddd;}#graphDiv .edge-thickness-normal{stroke-width:1px;}#graphDiv .edge-thickness-thick{stroke-width:3.5px;}#graphDiv .edge-pattern-solid{stroke-dasharray:0;}#graphDiv .edge-thickness-invisible{stroke-width:0;fill:none;}#graphDiv .edge-pattern-dashed{stroke-dasharray:3;}#graphDiv .edge-pattern-dotted{stroke-dasharray:2;}#graphDiv .marker{fill:lightgrey;stroke:lightgrey;}#graphDiv .marker.cross{stroke:lightgrey;}#graphDiv svg{font-family:"trebuchet ms",verdana,arial,sans-serif;font-size:16px;}#graphDiv p{margin:0;}#graphDiv .label{font-family:"trebuchet ms",verdana,arial,sans-serif;color:#ccc;}#graphDiv .cluster-label text{fill:#F9FFFE;}#graphDiv .cluster-label span{color:#F9FFFE;}#graphDiv .cluster-label span p{background-color:transparent;}#graphDiv .label text,#graphDiv span{fill:#ccc;color:#ccc;}#graphDiv .node rect,#graphDiv .node circle,#graphDiv .node ellipse,#graphDiv .node polygon,#graphDiv .node path{fill:#1f2020;stroke:#ccc;stroke-width:1px;}#graphDiv .rough-node .label text,#graphDiv .node .label text,#graphDiv .image-shape .label,#graphDiv .icon-shape .label{text-anchor:middle;}#graphDiv .node .katex path{fill:#000;stroke:#000;stroke-width:1px;}#graphDiv .rough-node .label,#graphDiv .node .label,#graphDiv .image-shape .label,#graphDiv .icon-shape .label{text-align:center;}#graphDiv .node.clickable{cursor:pointer;}#graphDiv .root .anchor path{fill:lightgrey!important;stroke-width:0;stroke:lightgrey;}#graphDiv .arrowheadPath{fill:lightgrey;}#graphDiv .edgePath .path{stroke:lightgrey;stroke-width:2.0px;}#graphDiv .flowchart-link{stroke:lightgrey;fill:none;}#graphDiv .edgeLabel{background-color:hsl(0, 0%, 34.4117647059%);text-align:center;}#graphDiv .edgeLabel p{background-color:hsl(0, 0%, 34.4117647059%);}#graphDiv .edgeLabel rect{opacity:0.5;background-color:hsl(0, 0%, 34.4117647059%);fill:hsl(0, 0%, 34.4117647059%);}#graphDiv .labelBkg{background-color:rgba(87.75, 87.75, 87.75, 0.5);}#graphDiv .cluster rect{fill:hsl(180, 1.5873015873%, 28.3529411765%);stroke:rgba(255, 255, 255, 0.25);stroke-width:1px;}#graphDiv .cluster text{fill:#F9FFFE;}#graphDiv .cluster span{color:#F9FFFE;}#graphDiv div.mermaidTooltip{position:absolute;text-align:center;max-width:200px;padding:2px;font-family:"trebuchet ms",verdana,arial,sans-serif;font-size:12px;background:hsl(20, 1.5873015873%, 12.3529411765%);border:1px solid rgba(255, 255, 255, 0.25);border-radius:2px;pointer-events:none;z-index:100;}#graphDiv .flowchartTitleText{text-anchor:middle;font-size:18px;fill:#ccc;}#graphDiv rect.text{fill:none;stroke-width:0;}#graphDiv .icon-shape,#graphDiv .image-shape{background-color:hsl(0, 0%, 34.4117647059%);text-align:center;}#graphDiv .icon-shape p,#graphDiv .image-shape p{background-color:hsl(0, 0%, 34.4117647059%);padding:2px;}#graphDiv .icon-shape rect,#graphDiv .image-shape rect{opacity:0.5;background-color:hsl(0, 0%, 34.4117647059%);fill:hsl(0, 0%, 34.4117647059%);}#graphDiv :root{--mermaid-font-family:"trebuchet ms",verdana,arial,sans-serif;}</style><g><marker orient="auto" markerHeight="8" markerWidth="8" markerUnits="userSpaceOnUse" refY="5" refX="5" viewBox="0 0 10 10" class="marker flowchart-v2" id="graphDiv_flowchart-v2-pointEnd"><path style="stroke-width: 1; stroke-dasharray: 1, 0;" class="arrowMarkerPath" d="M 0 0 L 10 5 L 0 10 z"></path></marker><marker orient="auto" markerHeight="8" markerWidth="8" markerUnits="userSpaceOnUse" refY="5" refX="4.5" viewBox="0 0 10 10" class="marker flowchart-v2" id="graphDiv_flowchart-v2-pointStart"><path style="stroke-width: 1; stroke-dasharray: 1, 0;" class="arrowMarkerPath" d="M 0 5 L 10 10 L 10 0 z"></path></marker><marker orient="auto" markerHeight="11" markerWidth="11" markerUnits="userSpaceOnUse" refY="5" refX="11" viewBox="0 0 10 10" class="marker flowchart-v2" id="graphDiv_flowchart-v2-circleEnd"><circle style="stroke-width: 1; stroke-dasharray: 1, 0;" class="arrowMarkerPath" r="5" cy="5" cx="5"></circle></marker><marker orient="auto" markerHeight="11" markerWidth="11" markerUnits="userSpaceOnUse" refY="5" refX="-1" viewBox="0 0 10 10" class="marker flowchart-v2" id="graphDiv_flowchart-v2-circleStart"><circle style="stroke-width: 1; stroke-dasharray: 1, 0;" class="arrowMarkerPath" r="5" cy="5" cx="5"></circle></marker><marker orient="auto" markerHeight="11" markerWidth="11" markerUnits="userSpaceOnUse" refY="5.2" refX="12" viewBox="0 0 11 11" class="marker cross flowchart-v2" id="graphDiv_flowchart-v2-crossEnd"><path style="stroke-width: 2; stroke-dasharray: 1, 0;" class="arrowMarkerPath" d="M 1,1 l 9,9 M 10,1 l -9,9"></path></marker><marker orient="auto" markerHeight="11" markerWidth="11" markerUnits="userSpaceOnUse" refY="5.2" refX="-1" viewBox="0 0 11 11" class="marker cross flowchart-v2" id="graphDiv_flowchart-v2-crossStart"><path style="stroke-width: 2; stroke-dasharray: 1, 0;" class="arrowMarkerPath" d="M 1,1 l 9,9 M 10,1 l -9,9"></path></marker><g class="root"><g class="clusters"></g><g class="edgePaths"><path marker-end="url(#graphDiv_flowchart-v2-pointEnd)" style="" class="edge-thickness-normal edge-pattern-solid edge-thickness-normal edge-pattern-solid flowchart-link" id="L_A_B_0" d="M407.367,62L407.367,66.167C407.367,70.333,407.367,78.667,407.437,86.417C407.508,94.167,407.648,101.334,407.719,104.917L407.789,108.501"></path><path marker-end="url(#graphDiv_flowchart-v2-pointEnd)" style="" class="edge-thickness-normal edge-pattern-solid edge-thickness-normal edge-pattern-solid flowchart-link" id="L_B_C_1" d="M340.651,244.299L304.412,261.585C268.173,278.871,195.696,313.443,159.457,353.801C123.219,394.159,123.219,440.302,123.219,486.445C123.219,532.589,123.219,578.732,123.297,612.613C123.376,646.495,123.533,668.115,123.611,678.925L123.69,689.734"></path><path marker-end="url(#graphDiv_flowchart-v2-pointEnd)" style="" class="edge-thickness-normal edge-pattern-solid edge-thickness-normal edge-pattern-solid flowchart-link" id="L_B_D_2" d="M471.639,247.744L501.526,264.456C531.414,281.168,591.189,314.592,621.152,336.887C651.114,359.182,651.263,370.349,651.337,375.933L651.412,381.516"></path><path marker-end="url(#graphDiv_flowchart-v2-pointEnd)" style="" class="edge-thickness-normal edge-pattern-solid edge-thickness-normal edge-pattern-solid flowchart-link" id="L_C_E_3" d="M102.551,887.848L98.816,902.686C95.08,917.524,87.608,947.199,83.873,982.519C80.137,1017.839,80.137,1058.802,80.137,1099.766C80.137,1140.729,80.137,1181.693,81.127,1207.685C82.118,1233.677,84.099,1244.698,85.089,1250.209L86.08,1255.719"></path><path marker-end="url(#graphDiv_flowchart-v2-pointEnd)" style="" class="edge-thickness-normal edge-pattern-solid edge-thickness-normal edge-pattern-solid flowchart-link" id="L_C_F_4" d="M157.764,874.97L165.576,891.954C173.388,908.939,189.013,942.907,196.901,967.002C204.789,991.096,204.941,1005.318,205.018,1012.429L205.094,1019.539"></path><path marker-end="url(#graphDiv_flowchart-v2-pointEnd)" style="" class="edge-thickness-normal edge-pattern-solid edge-thickness-normal edge-pattern-solid flowchart-link" id="L_F_E_5" d="M184.284,1156.14L180.032,1167.226C175.781,1178.312,167.277,1200.484,157.039,1217.277C146.801,1234.07,134.829,1245.483,128.843,1251.19L122.857,1256.896"></path><path marker-end="url(#graphDiv_flowchart-v2-pointEnd)" style="" class="edge-thickness-normal edge-pattern-solid edge-thickness-normal edge-pattern-solid flowchart-link" id="L_F_G_6" d="M233.276,1148.853L240.365,1161.153C247.454,1173.454,261.631,1198.055,300.366,1216.723C339.102,1235.39,402.395,1248.124,434.041,1254.491L465.688,1260.858"></path><path marker-end="url(#graphDiv_flowchart-v2-pointEnd)" style="" class="edge-thickness-normal edge-pattern-solid edge-thickness-normal edge-pattern-solid flowchart-link" id="L_D_H_7" d="M598.248,535.158L581.568,550.111C564.888,565.064,531.528,594.969,514.928,627.957C498.329,660.945,498.489,697.016,498.57,715.051L498.65,733.086"></path><path marker-end="url(#graphDiv_flowchart-v2-pointEnd)" style="" class="edge-thickness-normal edge-pattern-solid edge-thickness-normal edge-pattern-solid flowchart-link" id="L_D_I_8" d="M712.558,527.282L737.235,543.548C761.913,559.813,811.269,592.344,836.022,614.193C860.774,636.042,860.923,647.209,860.997,652.792L861.072,658.375"></path><path marker-end="url(#graphDiv_flowchart-v2-pointEnd)" style="" class="edge-thickness-normal edge-pattern-solid edge-thickness-normal edge-pattern-solid flowchart-link" id="L_H_J_9" d="M474.672,841.668L461.119,864.203C447.567,886.737,420.461,931.806,406.986,963.907C393.511,996.008,393.667,1015.141,393.745,1024.707L393.823,1034.274"></path><path marker-end="url(#graphDiv_flowchart-v2-pointEnd)" style="" class="edge-thickness-normal edge-pattern-solid edge-thickness-normal edge-pattern-solid flowchart-link" id="L_H_G_10" d="M521.319,843.013L533.418,865.323C545.518,887.633,569.716,932.254,581.815,975.046C593.914,1017.839,593.914,1058.802,593.914,1099.766C593.914,1140.729,593.914,1181.693,593.914,1207.674C593.914,1233.656,593.914,1244.656,593.914,1250.156L593.914,1255.656"></path><path marker-end="url(#graphDiv_flowchart-v2-pointEnd)" style="" class="edge-thickness-normal edge-pattern-solid edge-thickness-normal edge-pattern-solid flowchart-link" id="L_J_K_11" d="M378.58,1146.982L374.345,1159.594C370.11,1172.207,361.641,1197.432,352.397,1215.711C343.153,1233.991,333.135,1245.325,328.126,1250.992L323.116,1256.659"></path><path marker-end="url(#graphDiv_flowchart-v2-pointEnd)" style="" class="edge-thickness-normal edge-pattern-solid edge-thickness-normal edge-pattern-solid flowchart-link" id="L_J_G_12" d="M422.207,1133.906L434.66,1148.698C447.113,1163.489,472.02,1193.073,493.261,1213.664C514.503,1234.255,532.081,1245.854,540.87,1251.654L549.658,1257.453"></path><path marker-end="url(#graphDiv_flowchart-v2-pointEnd)" style="" class="edge-thickness-normal edge-pattern-solid edge-thickness-normal edge-pattern-solid flowchart-link" id="L_I_L_13" d="M841.753,921.003L840.149,930.315C838.544,939.627,835.334,958.251,833.804,973.146C832.274,988.042,832.423,999.209,832.497,1004.792L832.572,1010.375"></path><path marker-end="url(#graphDiv_flowchart-v2-pointEnd)" style="" class="edge-thickness-normal edge-pattern-solid edge-thickness-normal edge-pattern-solid flowchart-link" id="L_I_G_14" d="M913.371,888.129L922.245,902.92C931.12,917.711,948.868,947.293,957.743,982.566C966.617,1017.839,966.617,1058.802,966.617,1099.766C966.617,1140.729,966.617,1181.693,925.874,1209.171C885.132,1236.649,803.646,1250.641,762.904,1257.638L722.161,1264.634"></path><path marker-end="url(#graphDiv_flowchart-v2-pointEnd)" style="" class="edge-thickness-normal edge-pattern-solid edge-thickness-normal edge-pattern-solid flowchart-link" id="L_L_M_15" d="M818.991,1172.523L817.316,1180.878C815.64,1189.234,812.289,1205.945,815.175,1219.949C818.06,1233.952,827.183,1245.248,831.745,1250.896L836.306,1256.544"></path><path marker-end="url(#graphDiv_flowchart-v2-pointEnd)" style="" class="edge-thickness-normal edge-pattern-solid edge-thickness-normal edge-pattern-solid flowchart-link" id="L_L_G_16" d="M857.621,1161.16L861.78,1171.409C865.938,1181.659,874.254,1202.157,851.25,1218.429C828.246,1234.701,773.921,1246.746,746.758,1252.768L719.596,1258.79"></path><path marker-end="url(#graphDiv_flowchart-v2-pointEnd)" style="" class="edge-thickness-normal edge-pattern-solid edge-thickness-normal edge-pattern-solid flowchart-link" id="L_E_Z_17" d="M91.641,1313.656L91.641,1317.823C91.641,1321.99,91.641,1330.323,147.443,1342.088C203.245,1353.852,314.85,1369.049,370.652,1376.647L426.455,1384.245"></path><path marker-end="url(#graphDiv_flowchart-v2-pointEnd)" style="" class="edge-thickness-normal edge-pattern-solid edge-thickness-normal edge-pattern-solid flowchart-link" id="L_K_Z_18" d="M296.602,1313.656L296.602,1317.823C296.602,1321.99,296.602,1330.323,318.265,1340.856C339.928,1351.389,383.254,1364.122,404.917,1370.488L426.58,1376.855"></path><path marker-end="url(#graphDiv_flowchart-v2-pointEnd)" style="" class="edge-thickness-normal edge-pattern-solid edge-thickness-normal edge-pattern-solid flowchart-link" id="L_M_Z_19" d="M860.625,1313.656L860.625,1317.823C860.625,1321.99,860.625,1330.323,803.96,1342.102C747.294,1353.881,633.963,1369.106,577.298,1376.718L520.632,1384.33"></path><path marker-end="url(#graphDiv_flowchart-v2-pointEnd)" style="" class="edge-thickness-normal edge-pattern-solid edge-thickness-normal edge-pattern-solid flowchart-link" id="L_G_Z_20" d="M593.914,1313.656L593.914,1317.823C593.914,1321.99,593.914,1330.323,581.652,1339.787C569.389,1349.251,544.865,1359.845,532.602,1365.143L520.34,1370.44"></path></g><g class="edgeLabels"><g class="edgeLabel"><g transform="translate(0, 0)" class="label"><foreignObject height="0" width="0"><div style="display: table-cell; white-space: nowrap; line-height: 1.5; max-width: 200px; text-align: center;" class="labelBkg" xmlns="http://www.w3.org/1999/xhtml"><span class="edgeLabel"></span></div></foreignObject></g></g><g transform="translate(123.21875, 486.4453125)" class="edgeLabel"><g transform="translate(-12.7734375, -12)" class="label"><foreignObject height="24" width="25.546875"><div style="display: table-cell; white-space: nowrap; line-height: 1.5; max-width: 200px; text-align: center;" class="labelBkg" xmlns="http://www.w3.org/1999/xhtml"><span class="edgeLabel"><p>Sim</p></span></div></foreignObject></g></g><g transform="translate(650.96484375, 348.015625)" class="edgeLabel"><g transform="translate(-13.6015625, -12)" class="label"><foreignObject height="24" width="27.203125"><div style="display: table-cell; white-space: nowrap; line-height: 1.5; max-width: 200px; text-align: center;" class="labelBkg" xmlns="http://www.w3.org/1999/xhtml"><span class="edgeLabel"><p>Não</p></span></div></foreignObject></g></g><g transform="translate(80.13671875, 1099.765625)" class="edgeLabel"><g transform="translate(-12.7734375, -12)" class="label"><foreignObject height="24" width="25.546875"><div style="display: table-cell; white-space: nowrap; line-height: 1.5; max-width: 200px; text-align: center;" class="labelBkg" xmlns="http://www.w3.org/1999/xhtml"><span class="edgeLabel"><p>Sim</p></span></div></foreignObject></g></g><g transform="translate(204.63671875, 976.875)" class="edgeLabel"><g transform="translate(-13.6015625, -12)" class="label"><foreignObject height="24" width="27.203125"><div style="display: table-cell; white-space: nowrap; line-height: 1.5; max-width: 200px; text-align: center;" class="labelBkg" xmlns="http://www.w3.org/1999/xhtml"><span class="edgeLabel"><p>Não</p></span></div></foreignObject></g></g><g transform="translate(158.7734375, 1222.65625)" class="edgeLabel"><g transform="translate(-12.7734375, -12)" class="label"><foreignObject height="24" width="25.546875"><div style="display: table-cell; white-space: nowrap; line-height: 1.5; max-width: 200px; text-align: center;" class="labelBkg" xmlns="http://www.w3.org/1999/xhtml"><span class="edgeLabel"><p>Sim</p></span></div></foreignObject></g></g><g transform="translate(275.80859375, 1222.65625)" class="edgeLabel"><g transform="translate(-13.6015625, -12)" class="label"><foreignObject height="24" width="27.203125"><div style="display: table-cell; white-space: nowrap; line-height: 1.5; max-width: 200px; text-align: center;" class="labelBkg" xmlns="http://www.w3.org/1999/xhtml"><span class="edgeLabel"><p>Não</p></span></div></foreignObject></g></g><g transform="translate(498.16796875, 624.875)" class="edgeLabel"><g transform="translate(-12.7734375, -12)" class="label"><foreignObject height="24" width="25.546875"><div style="display: table-cell; white-space: nowrap; line-height: 1.5; max-width: 200px; text-align: center;" class="labelBkg" xmlns="http://www.w3.org/1999/xhtml"><span class="edgeLabel"><p>Sim</p></span></div></foreignObject></g></g><g transform="translate(860.625, 624.875)" class="edgeLabel"><g transform="translate(-13.6015625, -12)" class="label"><foreignObject height="24" width="27.203125"><div style="display: table-cell; white-space: nowrap; line-height: 1.5; max-width: 200px; text-align: center;" class="labelBkg" xmlns="http://www.w3.org/1999/xhtml"><span class="edgeLabel"><p>Não</p></span></div></foreignObject></g></g><g transform="translate(393.35546875, 976.875)" class="edgeLabel"><g transform="translate(-12.7734375, -12)" class="label"><foreignObject height="24" width="25.546875"><div style="display: table-cell; white-space: nowrap; line-height: 1.5; max-width: 200px; text-align: center;" class="labelBkg" xmlns="http://www.w3.org/1999/xhtml"><span class="edgeLabel"><p>Sim</p></span></div></foreignObject></g></g><g transform="translate(593.9140625, 1099.765625)" class="edgeLabel"><g transform="translate(-13.6015625, -12)" class="label"><foreignObject height="24" width="27.203125"><div style="display: table-cell; white-space: nowrap; line-height: 1.5; max-width: 200px; text-align: center;" class="labelBkg" xmlns="http://www.w3.org/1999/xhtml"><span class="edgeLabel"><p>Não</p></span></div></foreignObject></g></g><g transform="translate(353.171875, 1222.65625)" class="edgeLabel"><g transform="translate(-12.7734375, -12)" class="label"><foreignObject height="24" width="25.546875"><div style="display: table-cell; white-space: nowrap; line-height: 1.5; max-width: 200px; text-align: center;" class="labelBkg" xmlns="http://www.w3.org/1999/xhtml"><span class="edgeLabel"><p>Sim</p></span></div></foreignObject></g></g><g transform="translate(496.92578125, 1222.65625)" class="edgeLabel"><g transform="translate(-13.6015625, -12)" class="label"><foreignObject height="24" width="27.203125"><div style="display: table-cell; white-space: nowrap; line-height: 1.5; max-width: 200px; text-align: center;" class="labelBkg" xmlns="http://www.w3.org/1999/xhtml"><span class="edgeLabel"><p>Não</p></span></div></foreignObject></g></g><g transform="translate(832.125, 976.875)" class="edgeLabel"><g transform="translate(-12.7734375, -12)" class="label"><foreignObject height="24" width="25.546875"><div style="display: table-cell; white-space: nowrap; line-height: 1.5; max-width: 200px; text-align: center;" class="labelBkg" xmlns="http://www.w3.org/1999/xhtml"><span class="edgeLabel"><p>Sim</p></span></div></foreignObject></g></g><g transform="translate(966.6171875, 1099.765625)" class="edgeLabel"><g transform="translate(-13.6015625, -12)" class="label"><foreignObject height="24" width="27.203125"><div style="display: table-cell; white-space: nowrap; line-height: 1.5; max-width: 200px; text-align: center;" class="labelBkg" xmlns="http://www.w3.org/1999/xhtml"><span class="edgeLabel"><p>Não</p></span></div></foreignObject></g></g><g transform="translate(808.9375, 1222.65625)" class="edgeLabel"><g transform="translate(-12.7734375, -12)" class="label"><foreignObject height="24" width="25.546875"><div style="display: table-cell; white-space: nowrap; line-height: 1.5; max-width: 200px; text-align: center;" class="labelBkg" xmlns="http://www.w3.org/1999/xhtml"><span class="edgeLabel"><p>Sim</p></span></div></foreignObject></g></g><g transform="translate(882.5703125, 1222.65625)" class="edgeLabel"><g transform="translate(-13.6015625, -12)" class="label"><foreignObject height="24" width="27.203125"><div style="display: table-cell; white-space: nowrap; line-height: 1.5; max-width: 200px; text-align: center;" class="labelBkg" xmlns="http://www.w3.org/1999/xhtml"><span class="edgeLabel"><p>Não</p></span></div></foreignObject></g></g><g class="edgeLabel"><g transform="translate(0, 0)" class="label"><foreignObject height="0" width="0"><div style="display: table-cell; white-space: nowrap; line-height: 1.5; max-width: 200px; text-align: center;" class="labelBkg" xmlns="http://www.w3.org/1999/xhtml"><span class="edgeLabel"></span></div></foreignObject></g></g><g class="edgeLabel"><g transform="translate(0, 0)" class="label"><foreignObject height="0" width="0"><div style="display: table-cell; white-space: nowrap; line-height: 1.5; max-width: 200px; text-align: center;" class="labelBkg" xmlns="http://www.w3.org/1999/xhtml"><span class="edgeLabel"></span></div></foreignObject></g></g><g class="edgeLabel"><g transform="translate(0, 0)" class="label"><foreignObject height="0" width="0"><div style="display: table-cell; white-space: nowrap; line-height: 1.5; max-width: 200px; text-align: center;" class="labelBkg" xmlns="http://www.w3.org/1999/xhtml"><span class="edgeLabel"></span></div></foreignObject></g></g><g class="edgeLabel"><g transform="translate(0, 0)" class="label"><foreignObject height="0" width="0"><div style="display: table-cell; white-space: nowrap; line-height: 1.5; max-width: 200px; text-align: center;" class="labelBkg" xmlns="http://www.w3.org/1999/xhtml"><span class="edgeLabel"></span></div></foreignObject></g></g></g><g class="nodes"><g transform="translate(407.3671875, 35)" id="flowchart-A-1023" class="node default"><rect height="54" width="98.828125" y="-27" x="-49.4140625" style="" class="basic label-container"></rect><g transform="translate(-19.4140625, -12)" style="" class="label"><rect></rect><foreignObject height="24" width="38.828125"><div style="display: table-cell; white-space: nowrap; line-height: 1.5; max-width: 200px; text-align: center;" xmlns="http://www.w3.org/1999/xhtml"><span class="nodeLabel"><p>Início</p></span></div></foreignObject></g></g><g transform="translate(407.3671875, 211.5078125)" id="flowchart-B-1024" class="node default"><polygon transform="translate(-99.5078125,99.5078125)" class="label-container" points="99.5078125,0 199.015625,-99.5078125 99.5078125,-199.015625 0,-99.5078125"></polygon><g transform="translate(-72.5078125, -12)" style="" class="label"><rect></rect><foreignObject height="24" width="145.015625"><div style="display: table-cell; white-space: nowrap; line-height: 1.5; max-width: 200px; text-align: center;" xmlns="http://www.w3.org/1999/xhtml"><span class="nodeLabel"><p>O animal tem pelos?</p></span></div></foreignObject></g></g><g transform="translate(123.21875, 800.875)" id="flowchart-C-1026" class="node default"><polygon transform="translate(-107.640625,107.640625)" class="label-container" points="107.640625,0 215.28125,-107.640625 107.640625,-215.28125 0,-107.640625"></polygon><g transform="translate(-80.640625, -12)" style="" class="label"><rect></rect><foreignObject height="24" width="161.28125"><div style="display: table-cell; white-space: nowrap; line-height: 1.5; max-width: 200px; text-align: center;" xmlns="http://www.w3.org/1999/xhtml"><span class="nodeLabel"><p>Amamenta os filhotes?</p></span></div></foreignObject></g></g><g transform="translate(650.96484375, 486.4453125)" id="flowchart-D-1028" class="node default"><polygon transform="translate(-101.4296875,101.4296875)" class="label-container" points="101.4296875,0 202.859375,-101.4296875 101.4296875,-202.859375 0,-101.4296875"></polygon><g transform="translate(-74.4296875, -12)" style="" class="label"><rect></rect><foreignObject height="24" width="148.859375"><div style="display: table-cell; white-space: nowrap; line-height: 1.5; max-width: 200px; text-align: center;" xmlns="http://www.w3.org/1999/xhtml"><span class="nodeLabel"><p>O animal tem penas?</p></span></div></foreignObject></g></g><g transform="translate(91.640625, 1286.65625)" id="flowchart-E-1030" class="node default"><rect height="54" width="167.28125" y="-27" x="-83.640625" style="" class="basic label-container"></rect><g transform="translate(-53.640625, -12)" style="" class="label"><rect></rect><foreignObject height="24" width="107.28125"><div style="display: table-cell; white-space: nowrap; line-height: 1.5; max-width: 200px; text-align: center;" xmlns="http://www.w3.org/1999/xhtml"><span class="nodeLabel"><p>É um Mamífero</p></span></div></foreignObject></g></g><g transform="translate(204.63671875, 1099.765625)" id="flowchart-F-1032" class="node default"><polygon transform="translate(-76.7265625,76.7265625)" class="label-container" points="76.7265625,0 153.453125,-76.7265625 76.7265625,-153.453125 0,-76.7265625"></polygon><g transform="translate(-49.7265625, -12)" style="" class="label"><rect></rect><foreignObject height="24" width="99.453125"><div style="display: table-cell; white-space: nowrap; line-height: 1.5; max-width: 200px; text-align: center;" xmlns="http://www.w3.org/1999/xhtml"><span class="nodeLabel"><p>Tem pulmões?</p></span></div></foreignObject></g></g><g transform="translate(593.9140625, 1286.65625)" id="flowchart-G-1036" class="node default"><rect height="54" width="248.609375" y="-27" x="-124.3046875" style="" class="basic label-container"></rect><g transform="translate(-94.3046875, -12)" style="" class="label"><rect></rect><foreignObject height="24" width="188.609375"><div style="display: table-cell; white-space: nowrap; line-height: 1.5; max-width: 200px; text-align: center;" xmlns="http://www.w3.org/1999/xhtml"><span class="nodeLabel"><p>Não foi possível classificar</p></span></div></foreignObject></g></g><g transform="translate(498.16796875, 800.875)" id="flowchart-H-1038" class="node default"><polygon transform="translate(-64.2890625,64.2890625)" class="label-container" points="64.2890625,0 128.578125,-64.2890625 64.2890625,-128.578125 0,-64.2890625"></polygon><g transform="translate(-37.2890625, -12)" style="" class="label"><rect></rect><foreignObject height="24" width="74.578125"><div style="display: table-cell; white-space: nowrap; line-height: 1.5; max-width: 200px; text-align: center;" xmlns="http://www.w3.org/1999/xhtml"><span class="nodeLabel"><p>Bota ovos?</p></span></div></foreignObject></g></g><g transform="translate(860.625, 800.875)" id="flowchart-I-1040" class="node default"><polygon transform="translate(-139,139)" class="label-container" points="139,0 278,-139 139,-278 0,-139"></polygon><g transform="translate(-100, -24)" style="" class="label"><rect></rect><foreignObject height="48" width="200"><div style="display: table; white-space: break-spaces; line-height: 1.5; max-width: 200px; text-align: center; width: 200px;" xmlns="http://www.w3.org/1999/xhtml"><span class="nodeLabel"><p>Vive na água e tem brânquias?</p></span></div></foreignObject></g></g><g transform="translate(393.35546875, 1099.765625)" id="flowchart-J-1042" class="node default"><polygon transform="translate(-61.9921875,61.9921875)" class="label-container" points="61.9921875,0 123.984375,-61.9921875 61.9921875,-123.984375 0,-61.9921875"></polygon><g transform="translate(-34.9921875, -12)" style="" class="label"><rect></rect><foreignObject height="24" width="69.984375"><div style="display: table-cell; white-space: nowrap; line-height: 1.5; max-width: 200px; text-align: center;" xmlns="http://www.w3.org/1999/xhtml"><span class="nodeLabel"><p>Tem bico?</p></span></div></foreignObject></g></g><g transform="translate(296.6015625, 1286.65625)" id="flowchart-K-1046" class="node default"><rect height="54" width="132.875" y="-27" x="-66.4375" style="" class="basic label-container"></rect><g transform="translate(-36.4375, -12)" style="" class="label"><rect></rect><foreignObject height="24" width="72.875"><div style="display: table-cell; white-space: nowrap; line-height: 1.5; max-width: 200px; text-align: center;" xmlns="http://www.w3.org/1999/xhtml"><span class="nodeLabel"><p>É uma Ave</p></span></div></foreignObject></g></g><g transform="translate(832.125, 1099.765625)" id="flowchart-L-1050" class="node default"><polygon transform="translate(-85.890625,85.890625)" class="label-container" points="85.890625,0 171.78125,-85.890625 85.890625,-171.78125 0,-85.890625"></polygon><g transform="translate(-58.890625, -12)" style="" class="label"><rect></rect><foreignObject height="24" width="117.78125"><div style="display: table-cell; white-space: nowrap; line-height: 1.5; max-width: 200px; text-align: center;" xmlns="http://www.w3.org/1999/xhtml"><span class="nodeLabel"><p>Tem nadadeiras?</p></span></div></foreignObject></g></g><g transform="translate(860.625, 1286.65625)" id="flowchart-M-1054" class="node default"><rect height="54" width="138.4375" y="-27" x="-69.21875" style="" class="basic label-container"></rect><g transform="translate(-39.21875, -12)" style="" class="label"><rect></rect><foreignObject height="24" width="78.4375"><div style="display: table-cell; white-space: nowrap; line-height: 1.5; max-width: 200px; text-align: center;" xmlns="http://www.w3.org/1999/xhtml"><span class="nodeLabel"><p>É um Peixe</p></span></div></foreignObject></g></g><g transform="translate(473.54296875, 1390.65625)" id="flowchart-Z-1058" class="node default"><rect height="54" width="86.25" y="-27" x="-43.125" style="" class="basic label-container"></rect><g transform="translate(-13.125, -12)" style="" class="label"><rect></rect><foreignObject height="24" width="26.25"><div style="display: table-cell; white-space: nowrap; line-height: 1.5; max-width: 200px; text-align: center;" xmlns="http://www.w3.org/1999/xhtml"><span class="nodeLabel"><p>Fim</p></span></div></foreignObject></g></g></g></g></g></svg>